<?xml version="1.0" encoding="UTF-8"?><svg id="Layer_2" xmlns="http://www.w3.org/2000/svg" xmlns:xlink="http://www.w3.org/1999/xlink" viewBox="0 0 1961.76 1101.06"><defs><style>.cls-1{opacity:.45;}.cls-1,.cls-2,.cls-3,.cls-4,.cls-5,.cls-6,.cls-7,.cls-8,.cls-9{fill:none;stroke:#2b3e41;stroke-miterlimit:10;stroke-width:2px;}.cls-10{fill:url(#radial-gradient-5);}.cls-3{opacity:.79;}.cls-11{fill:url(#radial-gradient);}.cls-12{fill:url(#radial-gradient-3);}.cls-4{opacity:.31;}.cls-13{fill:url(#radial-gradient-2);}.cls-5{opacity:.6;}.cls-14{fill:url(#radial-gradient-4);}.cls-6{opacity:.65;}.cls-15{fill:url(#radial-gradient-6);}.cls-7{opacity:.75;}.cls-8{opacity:.5;}.cls-9{opacity:.2;}</style><radialGradient id="radial-gradient" cx="1786.81" cy="543.76" fx="1786.81" fy="543.76" r="5.99" gradientUnits="userSpaceOnUse"><stop offset="0" stop-color="#317366"/><stop offset="1" stop-color="#162c2f" stop-opacity=".4"/></radialGradient><radialGradient id="radial-gradient-2" cx="1881.55" cy="433.86" fx="1881.55" fy="433.86" xlink:href="#radial-gradient"/><radialGradient id="radial-gradient-3" cx="1921.55" cy="343.86" fx="1921.55" fy="343.86" r="5.99" gradientUnits="userSpaceOnUse"><stop offset="0" stop-color="#45877a"/><stop offset="1" stop-color="#162c2f" stop-opacity=".6"/></radialGradient><radialGradient id="radial-gradient-4" cx="1770.55" cy="305.86" fx="1770.55" fy="305.86" r="5.99" gradientUnits="userSpaceOnUse"><stop offset="0" stop-color="#45877a"/><stop offset=".63" stop-color="#162c2f" stop-opacity=".6"/></radialGradient><radialGradient id="radial-gradient-5" cx="1757.55" cy="140.86" fx="1757.55" fy="140.86" r="5.99" gradientUnits="userSpaceOnUse"><stop offset="0" stop-color="#45877a"/><stop offset=".19" stop-color="#438377" stop-opacity=".98"/><stop offset=".38" stop-color="#3d796e" stop-opacity=".94"/><stop offset=".58" stop-color="#356860" stop-opacity=".87"/><stop offset=".77" stop-color="#28504c" stop-opacity=".76"/><stop offset=".97" stop-color="#193133" stop-opacity=".63"/><stop offset="1" stop-color="#162c2f" stop-opacity=".6"/></radialGradient><radialGradient id="radial-gradient-6" cx="1723.55" cy="178.86" fx="1723.55" fy="178.86" r="5.99" gradientUnits="userSpaceOnUse"><stop offset="0" stop-color="#45877a" stop-opacity=".6"/><stop offset=".23" stop-color="#428175" stop-opacity=".58"/><stop offset=".47" stop-color="#3a7269" stop-opacity=".51"/><stop offset=".71" stop-color="#2d5853" stop-opacity=".4"/><stop offset=".95" stop-color="#1a3536" stop-opacity=".24"/><stop offset="1" stop-color="#162c2f" stop-opacity=".2"/></radialGradient></defs><line class="cls-2" x1="1953.41" y1="630.09" x2="1870.44" y2="630.09"/><polyline class="cls-2" points="1953.41 616.05 1897.92 616.05 1880.2 598.33 1833.01 598.33 1802.99 568.3 1723.66 568.3"/><polyline class="cls-2" points="1953.41 602.24 1905.53 602.24 1884.36 581.07 1842.95 581.07 1806.64 544.76 1786.81 544.76"/><line class="cls-9" x1="1953.41" y1="555.82" x2="1870.44" y2="555.82"/><polyline class="cls-1" points="1953.41 535.35 1933.01 535.35 1901.14 503.48 1754.65 503.48"/><polyline class="cls-2" points="1953.41 507.86 1940.03 507.86 1909.91 477.75 1810.79 477.75 1757.43 424.38 1727.16 424.38"/><polyline class="cls-5" points="1675.12 452.31 1737.11 452.31 1751.73 437.69 1770.73 437.69"/><polyline class="cls-7" points="1641.78 406.11 1751.73 406.11 1807.28 461.66 1953.41 461.66"/><polyline class="cls-2" points="1953.41 433.89 1889.15 433.89 1823.66 433.89 1774.68 384.91 1720.15 384.91"/><polyline class="cls-7" points="1953.41 403.18 1836.78 403.18 1782.26 348.67 1683.89 348.67"/><polyline class="cls-2" points="1953.41 371.02 1844.71 371.02 1799.97 326.28 1722.92 326.28"/><polyline class="cls-2" points="1921.32 343.54 1876.29 343.54 1828.17 295.42"/><polyline class="cls-2" points="1770.73 304.94 1811.52 264.15 1844.12 264.15 1891.42 311.45 1953.41 311.45"/><polyline class="cls-2" points="1953.41 280.38 1886.23 280.38 1846.01 240.16 1797.6 240.16 1740.22 297.53 1672.19 297.53"/><polyline class="cls-2" points="1683.89 214.88 1844.71 214.88 1889.82 259.99 1953.41 259.99"/><polyline class="cls-2" points="1953.41 229.5 1899.09 229.5 1848.51 178.92 1727.16 178.92"/><line class="cls-8" x1="1777.38" y1="196.75" x2="1865.68" y2="196.75"/><polyline class="cls-2" points="1953.41 204.21 1887.98 204.21 1825.4 141.63 1762.84 141.63"/><circle class="cls-2" cx="1678.04" cy="214.88" r="5.85"/><circle class="cls-11" cx="1786.81" cy="543.76" r="5.99"/><circle class="cls-13" cx="1881.55" cy="433.86" r="5.99"/><circle class="cls-12" cx="1921.55" cy="343.86" r="5.99"/><circle class="cls-14" cx="1770.55" cy="305.86" r="5.99"/><circle class="cls-10" cx="1757.55" cy="140.86" r="5.99"/><circle class="cls-15" cx="1723.55" cy="178.86" r="5.99"/><circle class="cls-2" cx="1716.55" cy="567.86" r="5.85"/><circle class="cls-9" cx="1865.55" cy="555.86" r="5.85"/><circle class="cls-1" cx="1747.55" cy="502.86" r="5.85"/><circle class="cls-4" cx="1667.55" cy="451.86" r="5.85"/><circle class="cls-5" cx="1721.55" cy="423.86" r="5.85"/><circle class="cls-8" cx="1665.55" cy="296.86" r="5.85"/><circle class="cls-6" cx="1635.55" cy="406.86" r="5.85"/><circle class="cls-3" cx="1715.55" cy="326.86" r="5.85"/><circle class="cls-7" cx="1677.55" cy="349.86" r="5.85"/></svg>